<svg width="34" height="15" viewBox="0 0 34 15" fill="none" xmlns="http://www.w3.org/2000/svg">
<path d="M32.3125 8.5C32.8648 8.5 33.3125 8.05228 33.3125 7.5C33.3125 6.94772 32.8648 6.5 32.3125 6.5V8.5ZM0.980392 6.79289C0.589869 7.18342 0.589869 7.81658 0.980392 8.20711L7.34435 14.5711C7.73488 14.9616 8.36804 14.9616 8.75857 14.5711C9.14909 14.1805 9.14909 13.5474 8.75857 13.1569L3.10171 7.5L8.75857 1.84315C9.14909 1.45262 9.14909 0.819457 8.75857 0.428932C8.36804 0.0384078 7.73488 0.0384078 7.34435 0.428932L0.980392 6.79289ZM32.3125 6.5L1.6875 6.5V8.5L32.3125 8.5V6.5Z" fill="#03594E"/>
</svg>
