<svg width="34" height="15" viewBox="0 0 34 15" fill="none" xmlns="http://www.w3.org/2000/svg">
<path d="M1.6875 6.5C1.13522 6.5 0.6875 6.94772 0.6875 7.5C0.6875 8.05228 1.13522 8.5 1.6875 8.5L1.6875 6.5ZM33.0196 8.20711C33.4101 7.81659 33.4101 7.18342 33.0196 6.7929L26.6556 0.428934C26.2651 0.03841 25.632 0.0384099 25.2414 0.428934C24.8509 0.819459 24.8509 1.45262 25.2414 1.84315L30.8983 7.5L25.2414 13.1569C24.8509 13.5474 24.8509 14.1805 25.2414 14.5711C25.632 14.9616 26.2651 14.9616 26.6556 14.5711L33.0196 8.20711ZM1.6875 8.5L32.3125 8.5L32.3125 6.5L1.6875 6.5L1.6875 8.5Z" fill="#03594E"/>
</svg>
