<svg width="17" height="16" viewBox="0 0 17 16" fill="none" xmlns="http://www.w3.org/2000/svg">
<path d="M8.97553 1.58156L10.1574 5.21885C10.3582 5.83688 10.9341 6.25532 11.5839 6.25532H15.4084C15.8928 6.25532 16.0942 6.87513 15.7023 7.15983L12.6082 9.4078C12.0825 9.78976 11.8625 10.4668 12.0633 11.0848L13.2452 14.7221C13.3948 15.1828 12.8676 15.5659 12.4757 15.2812L9.38168 13.0332C8.85595 12.6512 8.14405 12.6512 7.61832 13.0332L4.52426 15.2812C4.1324 15.5659 3.60516 15.1828 3.75484 14.7221L4.93667 11.0848C5.13748 10.4668 4.91749 9.78976 4.39176 9.4078L1.2977 7.15983C0.905841 6.87513 1.10723 6.25532 1.59159 6.25532H5.41606C6.0659 6.25532 6.64183 5.83688 6.84265 5.21885L8.02447 1.58156C8.17415 1.1209 8.82585 1.12091 8.97553 1.58156Z" fill="#8C694A" stroke="#8C694A"/>
</svg>
