<svg width="92" height="25" viewBox="0 0 92 25" fill="none" xmlns="http://www.w3.org/2000/svg">
<path d="M36.69 7.52292H45.69V20.1229H44.43V8.71092H37.95V20.1229H36.69V7.52292ZM53.2168 10.9069C54.5008 10.9069 55.5928 11.3629 56.4928 12.2749C57.4048 13.1869 57.8608 14.3029 57.8608 15.6229C57.8608 16.9429 57.4048 18.0589 56.4928 18.9709C55.5928 19.8829 54.5008 20.3389 53.2168 20.3389C51.6208 20.3389 50.4088 19.6789 49.5808 18.3589V23.7229H48.3928V11.1229H49.5808V12.8869C50.4088 11.5669 51.6208 10.9069 53.2168 10.9069ZM50.6068 18.1609C51.2908 18.8449 52.1308 19.1869 53.1268 19.1869C54.1228 19.1869 54.9628 18.8449 55.6468 18.1609C56.3308 17.4529 56.6728 16.6069 56.6728 15.6229C56.6728 14.6269 56.3308 13.7869 55.6468 13.1029C54.9628 12.4069 54.1228 12.0589 53.1268 12.0589C52.1308 12.0589 51.2908 12.4069 50.6068 13.1029C49.9228 13.7869 49.5808 14.6269 49.5808 15.6229C49.5808 16.6069 49.9228 17.4529 50.6068 18.1609ZM61.0242 18.0529L66.3882 11.1229H67.3962V20.1229H66.2082V13.1929L60.8442 20.1229H59.8362V11.1229H61.0242V18.0529ZM73.0584 8.96292C73.0584 9.19092 72.9804 9.38292 72.8244 9.53892C72.6684 9.69492 72.4764 9.77292 72.2484 9.77292C72.0204 9.77292 71.8284 9.69492 71.6724 9.53892C71.5164 9.38292 71.4384 9.19092 71.4384 8.96292C71.4384 8.73492 71.5164 8.54292 71.6724 8.38692C71.8284 8.23092 72.0204 8.15292 72.2484 8.15292C72.4764 8.15292 72.6684 8.23092 72.8244 8.38692C72.9804 8.54292 73.0584 8.73492 73.0584 8.96292ZM76.4784 8.96292C76.4784 9.19092 76.4004 9.38292 76.2444 9.53892C76.0884 9.69492 75.8964 9.77292 75.6684 9.77292C75.4404 9.77292 75.2484 9.69492 75.0924 9.53892C74.9364 9.38292 74.8584 9.19092 74.8584 8.96292C74.8584 8.73492 74.9364 8.54292 75.0924 8.38692C75.2484 8.23092 75.4404 8.15292 75.6684 8.15292C75.8964 8.15292 76.0884 8.23092 76.2444 8.38692C76.4004 8.54292 76.4784 8.73492 76.4784 8.96292ZM74.0664 10.9069C75.4104 10.9069 76.4844 11.3809 77.2884 12.3289C78.1164 13.2649 78.5304 14.3749 78.5304 15.6589C78.5304 15.7189 78.5184 15.9049 78.4944 16.2169H70.5924C70.7124 17.1169 71.0964 17.8369 71.7444 18.3769C72.3924 18.9169 73.2024 19.1869 74.1744 19.1869C75.5424 19.1869 76.5084 18.6769 77.0724 17.6569L78.1164 18.2689C77.7204 18.9169 77.1744 19.4269 76.4784 19.7989C75.7944 20.1589 75.0204 20.3389 74.1564 20.3389C72.7404 20.3389 71.5884 19.8949 70.7004 19.0069C69.8124 18.1189 69.3684 16.9909 69.3684 15.6229C69.3684 14.2669 69.8064 13.1449 70.6824 12.2569C71.5584 11.3569 72.6864 10.9069 74.0664 10.9069ZM74.0664 12.0589C73.1304 12.0589 72.3444 12.3349 71.7084 12.8869C71.0844 13.4389 70.7124 14.1649 70.5924 15.0649H77.3064C77.1744 14.1049 76.8084 13.3669 76.2084 12.8509C75.5844 12.3229 74.8704 12.0589 74.0664 12.0589ZM87.8722 11.1229H89.2402V20.1229H88.0522V12.9409L84.9022 18.0529H84.7582L81.6082 12.9409V20.1229H80.4202V11.1229H81.7882L84.8302 16.0549L87.8722 11.1229Z" fill="#03594E"/>
<circle cx="12" cy="12.3729" r="11.5" stroke="#03594E"/>
<circle cx="12" cy="12.3729" r="5" fill="#03594E"/>
</svg>
