<svg width="92" height="25" viewBox="0 0 92 25" fill="none" xmlns="http://www.w3.org/2000/svg">
<path d="M36.94 7.4H45.94V20H44.68V8.588H38.2V20H36.94V7.4ZM53.4668 10.784C54.7508 10.784 55.8428 11.24 56.7428 12.152C57.6548 13.064 58.1108 14.18 58.1108 15.5C58.1108 16.82 57.6548 17.936 56.7428 18.848C55.8428 19.76 54.7508 20.216 53.4668 20.216C51.8708 20.216 50.6588 19.556 49.8308 18.236V23.6H48.6428V11H49.8308V12.764C50.6588 11.444 51.8708 10.784 53.4668 10.784ZM50.8568 18.038C51.5408 18.722 52.3808 19.064 53.3768 19.064C54.3728 19.064 55.2128 18.722 55.8968 18.038C56.5808 17.33 56.9228 16.484 56.9228 15.5C56.9228 14.504 56.5808 13.664 55.8968 12.98C55.2128 12.284 54.3728 11.936 53.3768 11.936C52.3808 11.936 51.5408 12.284 50.8568 12.98C50.1728 13.664 49.8308 14.504 49.8308 15.5C49.8308 16.484 50.1728 17.33 50.8568 18.038ZM61.2742 17.93L66.6382 11H67.6462V20H66.4582V13.07L61.0942 20H60.0862V11H61.2742V17.93ZM73.3084 8.84C73.3084 9.068 73.2304 9.26 73.0744 9.416C72.9184 9.572 72.7264 9.65 72.4984 9.65C72.2704 9.65 72.0784 9.572 71.9224 9.416C71.7664 9.26 71.6884 9.068 71.6884 8.84C71.6884 8.612 71.7664 8.42 71.9224 8.264C72.0784 8.108 72.2704 8.03 72.4984 8.03C72.7264 8.03 72.9184 8.108 73.0744 8.264C73.2304 8.42 73.3084 8.612 73.3084 8.84ZM76.7284 8.84C76.7284 9.068 76.6504 9.26 76.4944 9.416C76.3384 9.572 76.1464 9.65 75.9184 9.65C75.6904 9.65 75.4984 9.572 75.3424 9.416C75.1864 9.26 75.1084 9.068 75.1084 8.84C75.1084 8.612 75.1864 8.42 75.3424 8.264C75.4984 8.108 75.6904 8.03 75.9184 8.03C76.1464 8.03 76.3384 8.108 76.4944 8.264C76.6504 8.42 76.7284 8.612 76.7284 8.84ZM74.3164 10.784C75.6604 10.784 76.7344 11.258 77.5384 12.206C78.3664 13.142 78.7804 14.252 78.7804 15.536C78.7804 15.596 78.7684 15.782 78.7444 16.094H70.8424C70.9624 16.994 71.3464 17.714 71.9944 18.254C72.6424 18.794 73.4524 19.064 74.4244 19.064C75.7924 19.064 76.7584 18.554 77.3224 17.534L78.3664 18.146C77.9704 18.794 77.4244 19.304 76.7284 19.676C76.0444 20.036 75.2704 20.216 74.4064 20.216C72.9904 20.216 71.8384 19.772 70.9504 18.884C70.0624 17.996 69.6184 16.868 69.6184 15.5C69.6184 14.144 70.0564 13.022 70.9324 12.134C71.8084 11.234 72.9364 10.784 74.3164 10.784ZM74.3164 11.936C73.3804 11.936 72.5944 12.212 71.9584 12.764C71.3344 13.316 70.9624 14.042 70.8424 14.942H77.5564C77.4244 13.982 77.0584 13.244 76.4584 12.728C75.8344 12.2 75.1204 11.936 74.3164 11.936ZM88.1222 11H89.4902V20H88.3022V12.818L85.1522 17.93H85.0082L81.8582 12.818V20H80.6702V11H82.0382L85.0802 15.932L88.1222 11Z" fill="white"/>
<circle cx="12.25" cy="12.25" r="11.5" stroke="white"/>
<circle cx="12.25" cy="12.25" r="5" fill="white"/>
</svg>
